<svg width="173" height="63" viewBox="0 0 173 63" fill="none" xmlns="http://www.w3.org/2000/svg">
<rect width="172.453" height="62.2656" rx="8" fill="#121214"/>
<path d="M36.7969 39.6094H32.2656V22.7031H36.7969V39.6094ZM32 18.3281C32 17.651 32.224 17.0938 32.6719 16.6563C33.1302 16.2188 33.75 16 34.5313 16C35.3021 16 35.9167 16.2188 36.375 16.6563C36.8333 17.0938 37.0625 17.651 37.0625 18.3281C37.0625 19.0156 36.8281 19.5781 36.3594 20.0156C35.901 20.4531 35.2917 20.6719 34.5313 20.6719C33.7708 20.6719 33.1563 20.4531 32.6875 20.0156C32.2292 19.5781 32 19.0156 32 18.3281Z" fill="#E1E1E6"/>
<path d="M39.875 31.0313C39.875 28.4375 40.4896 26.349 41.7188 24.7656C42.9584 23.1823 44.625 22.3906 46.7188 22.3906C48.5729 22.3906 50.0157 23.026 51.0469 24.2969L51.2344 22.7031H55.3281V39.0469C55.3281 40.5261 54.9896 41.8125 54.3125 42.9063C53.6459 44 52.7031 44.8334 51.4844 45.4063C50.2657 45.9792 48.8386 46.2656 47.2031 46.2656C45.9636 46.2656 44.7552 46.0156 43.5781 45.5156C42.4011 45.0261 41.5104 44.3906 40.9063 43.6094L42.9063 40.8594C44.0313 42.1198 45.3959 42.75 47 42.75C48.1979 42.75 49.1302 42.4271 49.7969 41.7813C50.4636 41.1459 50.7969 40.2396 50.7969 39.0625V38.1563C49.7552 39.3334 48.3854 39.9219 46.6875 39.9219C44.6563 39.9219 43.0104 39.1302 41.75 37.5469C40.5 35.9532 39.875 33.8438 39.875 31.2188V31.0313ZM44.3907 31.3594C44.3907 32.8906 44.6979 34.0938 45.3125 34.9688C45.9271 35.8334 46.7709 36.2656 47.8438 36.2656C49.2188 36.2656 50.2031 35.75 50.7969 34.7188V27.6094C50.1927 26.5782 49.2188 26.0625 47.875 26.0625C46.7917 26.0625 45.9375 26.5052 45.3125 27.3906C44.6979 28.2761 44.3907 29.599 44.3907 31.3594Z" fill="#E1E1E6"/>
<path d="M59.0469 37.3906C59.0469 36.6719 59.2865 36.0886 59.7657 35.6406C60.2552 35.1927 60.8646 34.9688 61.5938 34.9688C62.3334 34.9688 62.9427 35.1927 63.4219 35.6406C63.9115 36.0886 64.1563 36.6719 64.1563 37.3906C64.1563 38.099 63.9167 38.6771 63.4375 39.125C62.9584 39.5625 62.3438 39.7812 61.5938 39.7812C60.8542 39.7812 60.2448 39.5625 59.7657 39.125C59.2865 38.6771 59.0469 38.099 59.0469 37.3906Z" fill="#E1E1E6"/>
<path d="M72.2812 22.7031L72.4218 24.6563C73.6301 23.1458 75.2499 22.3906 77.2812 22.3906C79.0728 22.3906 80.4062 22.9167 81.2812 23.9688C82.1562 25.0208 82.6041 26.5938 82.6249 28.6875V39.6094H78.1093V28.7969C78.1093 27.8386 77.901 27.1459 77.4843 26.7188C77.0676 26.2813 76.3749 26.0625 75.4062 26.0625C74.1353 26.0625 73.1822 26.6042 72.5468 27.6875V39.6094H68.0312V22.7031H72.2812Z" fill="#E1E1E6"/>
<path d="M93.8438 39.9219C91.3646 39.9219 89.3438 39.1615 87.7813 37.6406C86.2292 36.1198 85.4531 34.0938 85.4531 31.5625V31.125C85.4531 29.4271 85.7813 27.9115 86.4375 26.5782C87.0938 25.2344 88.0209 24.2031 89.2188 23.4844C90.4271 22.7552 91.8021 22.3906 93.3438 22.3906C95.6563 22.3906 97.474 23.1198 98.7969 24.5781C100.13 26.0365 100.797 28.1042 100.797 30.7813V32.625H90.0313C90.1771 33.7292 90.6146 34.6146 91.3438 35.2813C92.0834 35.9479 93.0157 36.2813 94.1407 36.2813C95.8802 36.2813 97.2396 35.6511 98.2188 34.3906L100.438 36.875C99.7604 37.8334 98.8438 38.5834 97.6875 39.125C96.5313 39.6563 95.25 39.9219 93.8438 39.9219ZM93.3281 26.0469C92.4323 26.0469 91.7031 26.349 91.1407 26.9532C90.5886 27.5573 90.2344 28.4219 90.0781 29.5469H96.3594V29.1875C96.3386 28.1875 96.0677 27.4167 95.5469 26.875C95.0261 26.3229 94.2865 26.0469 93.3281 26.0469Z" fill="#E1E1E6"/>
<path d="M118.078 33.4688L120.297 22.7031H124.656L120.344 39.6094H116.563L113.359 28.9688L110.156 39.6094H106.391L102.078 22.7031H106.438L108.641 33.4532L111.734 22.7031H115L118.078 33.4688Z" fill="#E1E1E6"/>
<path d="M136.063 34.9375C136.063 34.3854 135.787 33.9532 135.235 33.6406C134.693 33.3177 133.818 33.0313 132.609 32.7813C128.589 31.9375 126.578 30.2292 126.578 27.6563C126.578 26.1563 127.198 24.9063 128.437 23.9063C129.687 22.8958 131.318 22.3906 133.328 22.3906C135.474 22.3906 137.188 22.8958 138.469 23.9063C139.761 24.9167 140.406 26.2292 140.406 27.8438H135.891C135.891 27.1979 135.682 26.6667 135.266 26.25C134.849 25.8229 134.198 25.6094 133.313 25.6094C132.552 25.6094 131.964 25.7813 131.547 26.125C131.13 26.4688 130.922 26.9063 130.922 27.4375C130.922 27.9375 131.156 28.3438 131.625 28.6563C132.104 28.9584 132.906 29.224 134.031 29.4532C135.156 29.6719 136.104 29.9219 136.875 30.2032C139.261 31.0782 140.453 32.5938 140.453 34.75C140.453 36.2917 139.792 37.5417 138.469 38.5C137.146 39.4479 135.438 39.9219 133.344 39.9219C131.927 39.9219 130.667 39.6719 129.562 39.1719C128.469 38.6615 127.609 37.9688 126.984 37.0938C126.359 36.2084 126.047 35.2552 126.047 34.2344H130.328C130.37 35.0365 130.667 35.6511 131.219 36.0782C131.771 36.5052 132.511 36.7188 133.438 36.7188C134.302 36.7188 134.953 36.5573 135.391 36.2344C135.839 35.9011 136.063 35.4688 136.063 34.9375Z" fill="#E1E1E6"/>
</svg>
